<svg width="24" height="24" viewBox="0 0 24 24" fill="none" xmlns="http://www.w3.org/2000/svg">
<path d="M12 3.99982H6C4.89543 3.99982 4 4.89525 4 5.99982V17.9998C4 19.1043 4.89543 19.9998 6 19.9998H18C19.1046 19.9998 20 19.1043 20 17.9998V11.9998M18.4142 8.41402L19.5 7.32827C20.281 6.54722 20.281 5.28089 19.5 4.49985C18.7189 3.7188 17.4526 3.7188 16.6715 4.49986L15.5858 5.5856M18.4142 8.41402L12.3779 14.4503C12.0987 14.7295 11.7431 14.9199 11.356 14.9973L8.41422 15.5856L9.00257 12.6439C9.08001 12.2567 9.27032 11.9011 9.54951 11.6219L15.5858 5.5856M18.4142 8.41402L15.5858 5.5856" stroke="#E0C900" stroke-width="1.2" stroke-linecap="round" stroke-linejoin="round"/>
</svg>
